<svg xmlns="http://www.w3.org/2000/svg" viewBox="0 0 512 512" width="512" height="512">
  <defs>
    <linearGradient id="bubble" x1="0" y1="0" x2="1" y2="1">
      <stop offset="0" stop-color="#38BDF8"/>
      <stop offset="0.55" stop-color="#4F7CFF"/>
      <stop offset="1" stop-color="#8B5CF6"/>
    </linearGradient>
    <radialGradient id="ambient" cx="0.25" cy="0.15" r="1.1">
      <stop offset="0" stop-color="#4F7CFF" stop-opacity="0.35"/>
      <stop offset="0.7" stop-color="#4F7CFF" stop-opacity="0"/>
    </radialGradient>
  </defs>

  <!-- dark squircle background -->
  <rect x="0" y="0" width="512" height="512" rx="118" fill="#0F1222"/>
  <rect x="0" y="0" width="512" height="512" rx="118" fill="url(#ambient)"/>

  <!-- gradient bubble -->
  <path fill="url(#bubble)" d="
    M156 116
    h200
    a62 62 0 0 1 62 62
    v118
    a62 62 0 0 1 -62 62
    h-118
    q-6 0 -11 3
    l-70 50
    q-14 10 -12 -7
    l6 -48
    a62 62 0 0 1 -57 -60
    v-118
    a62 62 0 0 1 62 -62
    z"/>

  <!-- voice / typing wave -->
  <g fill="#FFFFFF">
    <rect x="180" y="212" width="24" height="66" rx="12"/>
    <rect x="228" y="184" width="24" height="122" rx="12"/>
    <rect x="276" y="204" width="24" height="82" rx="12"/>
    <rect x="324" y="224" width="24" height="42" rx="12"/>
  </g>
</svg>
